<svg width="795" height="160" viewBox="0 0 795 160" fill="none" xmlns="http://www.w3.org/2000/svg">
<g clip-path="url(#clip0_853_549)">
<path d="M196.583 121.702C195.75 121.702 194.957 121.6 194.205 121.377C193.432 121.153 192.761 120.787 192.192 120.279C191.622 119.771 191.216 119.1 190.972 118.266H192.232C192.497 118.856 192.842 119.344 193.31 119.689C193.777 120.035 194.286 120.299 194.875 120.441C195.444 120.604 196.013 120.685 196.583 120.685C197.213 120.685 197.822 120.584 198.412 120.381C199.002 120.197 199.469 119.893 199.835 119.486C200.201 119.079 200.384 118.551 200.384 117.88C200.384 117.352 200.282 116.925 200.079 116.6C199.855 116.275 199.571 116.01 199.226 115.807C198.86 115.624 198.433 115.462 197.965 115.319C197.619 115.217 197.253 115.116 196.888 115.015C196.522 114.933 196.176 114.852 195.831 114.75C195.485 114.648 195.14 114.547 194.835 114.445C194.408 114.323 194.001 114.181 193.595 113.998C193.168 113.815 192.802 113.591 192.497 113.327C192.172 113.063 191.907 112.717 191.725 112.331C191.521 111.945 191.421 111.457 191.421 110.888C191.421 110.298 191.502 109.79 191.685 109.363C191.868 108.936 192.111 108.57 192.437 108.266C192.762 107.961 193.128 107.717 193.555 107.534C193.982 107.351 194.429 107.229 194.916 107.127C195.384 107.046 195.872 107.005 196.38 107.005C197.152 107.005 197.885 107.107 198.555 107.33C199.226 107.554 199.795 107.9 200.263 108.387C200.73 108.875 201.035 109.525 201.157 110.359H199.978C199.836 109.769 199.592 109.322 199.226 108.977C198.84 108.632 198.413 108.387 197.905 108.245C197.397 108.103 196.888 108.021 196.36 108.021C195.933 108.021 195.506 108.062 195.079 108.143C194.652 108.245 194.246 108.387 193.88 108.591C193.514 108.794 193.209 109.058 192.985 109.404C192.762 109.749 192.64 110.196 192.64 110.725C192.64 111.253 192.762 111.68 192.985 112.026C193.209 112.372 193.494 112.636 193.859 112.839C194.205 113.042 194.611 113.225 195.059 113.368C195.649 113.551 196.279 113.713 196.909 113.855C197.539 113.998 198.149 114.18 198.718 114.363C199.125 114.486 199.511 114.648 199.856 114.831C200.202 115.034 200.506 115.279 200.771 115.543C201.035 115.807 201.238 116.111 201.38 116.457C201.523 116.802 201.604 117.209 201.604 117.636C201.604 118.388 201.462 119.018 201.197 119.527C200.913 120.035 200.527 120.462 200.059 120.787C199.592 121.112 199.043 121.336 198.454 121.478C197.864 121.641 197.233 121.702 196.583 121.702H196.583ZM204.714 121.539V107.168H205.873V121.539H204.714ZM209.572 121.539V107.168H211.158L219.818 120.076V107.168H220.976V121.539H219.452L210.732 108.631V121.539H209.573H209.572ZM230.449 121.702C228.985 121.702 227.766 121.377 226.811 120.746C225.835 120.116 225.103 119.263 224.635 118.165C224.148 117.088 223.904 115.868 223.883 114.506C223.863 113.449 224.006 112.473 224.269 111.558C224.534 110.664 224.92 109.871 225.469 109.18C226.018 108.509 226.689 107.96 227.522 107.574C228.335 107.188 229.291 107.004 230.389 107.004C231.283 107.004 232.096 107.127 232.848 107.371C233.58 107.635 234.21 108.001 234.759 108.509C235.287 109.017 235.694 109.647 235.979 110.44H234.658C234.434 109.912 234.108 109.464 233.682 109.098C233.255 108.753 232.746 108.468 232.177 108.285C231.608 108.102 231.018 108.021 230.409 108.021C229.473 108.021 228.661 108.183 227.99 108.529C227.319 108.875 226.77 109.342 226.344 109.932C225.916 110.522 225.591 111.213 225.408 111.964C225.205 112.737 225.103 113.55 225.103 114.424C225.103 115.562 225.287 116.599 225.673 117.555C226.039 118.51 226.628 119.263 227.421 119.831C228.213 120.401 229.21 120.685 230.449 120.685C231.486 120.685 232.38 120.482 233.113 120.055C233.824 119.649 234.393 119.059 234.779 118.307C235.165 117.555 235.369 116.66 235.389 115.644H230.449V114.607H236.467V115.542C236.467 116.762 236.222 117.839 235.734 118.754C235.246 119.689 234.556 120.421 233.661 120.929C232.746 121.437 231.689 121.701 230.449 121.701L230.449 121.702ZM239.373 121.539V107.168H240.532V120.482H248.765V121.539H239.373V121.539ZM250.96 121.539V107.168H260.351V108.224H252.118V113.875H259.517V114.932H252.118V120.482H260.351V121.539H250.96V121.539ZM268.746 121.539V107.168H269.905V121.539H268.746ZM273.605 121.539V107.168H275.19L283.85 120.076V107.168H285.009V121.539H283.484L274.764 108.631V121.539H273.605H273.605ZM292.042 121.539V108.225H287.225V107.168H298.018V108.225H293.201V121.539H292.042H292.042ZM300.234 121.539V107.168H309.626V108.224H301.393V113.875H308.792V114.932H301.393V120.482H309.626V121.539H300.234V121.539ZM318.305 121.702C316.842 121.702 315.622 121.377 314.667 120.746C313.691 120.116 312.959 119.263 312.492 118.165C312.004 117.088 311.76 115.868 311.74 114.506C311.72 113.449 311.862 112.473 312.126 111.558C312.39 110.664 312.776 109.871 313.326 109.18C313.875 108.509 314.545 107.96 315.378 107.574C316.192 107.188 317.147 107.004 318.245 107.004C319.139 107.004 319.952 107.127 320.704 107.371C321.437 107.635 322.067 108.001 322.615 108.509C323.144 109.017 323.551 109.647 323.835 110.44H322.514C322.29 109.912 321.965 109.464 321.538 109.098C321.111 108.753 320.603 108.468 320.034 108.285C319.465 108.102 318.875 108.021 318.265 108.021C317.33 108.021 316.517 108.183 315.847 108.529C315.175 108.875 314.627 109.342 314.2 109.932C313.773 110.522 313.447 111.213 313.265 111.964C313.061 112.737 312.96 113.55 312.96 114.424C312.96 115.562 313.143 116.599 313.529 117.555C313.895 118.51 314.485 119.263 315.277 119.831C316.07 120.401 317.066 120.685 318.306 120.685C319.342 120.685 320.237 120.482 320.969 120.055C321.68 119.649 322.249 119.059 322.635 118.307C323.022 117.555 323.225 116.66 323.245 115.644H318.306V114.607H324.323V115.542C324.323 116.762 324.079 117.839 323.591 118.754C323.103 119.689 322.412 120.421 321.518 120.929C320.603 121.437 319.546 121.701 318.306 121.701L318.305 121.702ZM327.23 121.539V107.168H332.514C333.267 107.168 333.958 107.249 334.588 107.391C335.198 107.554 335.726 107.798 336.173 108.143C336.6 108.489 336.946 108.936 337.19 109.485C337.414 110.054 337.535 110.746 337.535 111.539C337.535 112.291 337.393 112.941 337.129 113.49C336.864 114.039 336.458 114.507 335.95 114.872C335.442 115.238 334.832 115.502 334.121 115.665L337.251 121.54H335.97L332.921 115.868H328.388V121.54H327.23V121.539ZM328.388 114.831H331.946C332.515 114.831 333.064 114.79 333.592 114.689C334.121 114.608 334.588 114.445 335.015 114.201C335.422 113.957 335.747 113.611 335.991 113.164C336.215 112.737 336.337 112.168 336.337 111.477C336.357 110.644 336.194 109.973 335.849 109.506C335.503 109.038 335.015 108.692 334.426 108.51C333.816 108.326 333.105 108.225 332.312 108.225H328.389V114.831L328.388 114.831ZM338.979 121.539L344.529 107.168H346.012L351.602 121.539H350.301L349.041 118.307H341.5L340.26 121.539H338.979H338.979ZM341.886 117.27H348.655L345.28 108.367L341.886 117.27Z" fill="white"/>
<path d="M356.047 121.54V108.225H351.229V107.169H362.023V108.225H357.206V121.54H356.047Z" fill="white"/>
<path d="M369.91 121.702C368.426 121.702 367.186 121.377 366.19 120.747C365.194 120.117 364.442 119.243 363.934 118.125C363.426 117.027 363.182 115.767 363.182 114.364C363.182 112.962 363.446 111.701 363.954 110.583C364.462 109.465 365.214 108.592 366.211 107.961C367.206 107.331 368.426 107.005 369.91 107.005C371.394 107.005 372.634 107.331 373.63 107.961C374.626 108.612 375.358 109.486 375.866 110.583C376.374 111.701 376.618 112.962 376.618 114.364C376.618 115.767 376.374 117.007 375.866 118.125C375.358 119.243 374.606 120.117 373.61 120.747C372.614 121.377 371.394 121.702 369.91 121.702ZM369.91 120.686C371.15 120.686 372.187 120.402 373 119.832C373.813 119.263 374.423 118.491 374.809 117.535C375.195 116.58 375.399 115.523 375.399 114.364C375.399 113.49 375.297 112.677 375.073 111.905C374.85 111.153 374.504 110.481 374.057 109.892C373.609 109.303 373.04 108.855 372.349 108.51C371.658 108.185 370.845 108.022 369.91 108.022C368.67 108.022 367.633 108.307 366.82 108.897C365.987 109.486 365.377 110.238 364.991 111.194C364.584 112.149 364.381 113.206 364.381 114.364C364.381 115.503 364.584 116.56 364.991 117.515C365.397 118.471 366.007 119.243 366.84 119.812C367.653 120.402 368.67 120.687 369.91 120.687L369.91 120.686ZM379.525 121.54V107.168H384.81C385.562 107.168 386.253 107.249 386.884 107.391C387.493 107.554 388.022 107.798 388.469 108.144C388.896 108.489 389.242 108.936 389.486 109.486C389.709 110.055 389.831 110.746 389.831 111.539C389.831 112.291 389.689 112.941 389.424 113.49C389.16 114.039 388.754 114.507 388.246 114.872C387.737 115.238 387.127 115.503 386.416 115.665L389.547 121.54H388.266L385.217 115.868H380.684V121.54H379.525V121.54ZM380.684 114.831H384.241C384.811 114.831 385.359 114.791 385.888 114.689C386.417 114.608 386.884 114.445 387.311 114.201C387.717 113.957 388.043 113.612 388.287 113.165C388.51 112.738 388.632 112.169 388.632 111.477C388.652 110.644 388.49 109.973 388.145 109.506C387.799 109.038 387.311 108.693 386.721 108.51C386.112 108.327 385.4 108.225 384.607 108.225H380.684V114.832L380.684 114.831ZM398.328 121.54V107.168H407.72V108.225H399.487V114.384H406.581V115.441H399.487V121.539H398.328V121.54ZM416.338 121.702C414.855 121.702 413.615 121.377 412.619 120.747C411.622 120.117 410.871 119.243 410.362 118.124C409.854 117.027 409.61 115.767 409.61 114.364C409.61 112.961 409.874 111.701 410.382 110.583C410.891 109.465 411.643 108.591 412.639 107.961C413.635 107.331 414.855 107.005 416.338 107.005C417.823 107.005 419.062 107.331 420.059 107.961C421.055 108.611 421.786 109.485 422.295 110.583C422.803 111.701 423.047 112.962 423.047 114.364C423.047 115.767 422.803 117.007 422.295 118.124C421.786 119.243 421.034 120.116 420.038 120.747C419.042 121.377 417.823 121.702 416.338 121.702ZM416.338 120.686C417.579 120.686 418.615 120.401 419.428 119.832C420.241 119.263 420.851 118.491 421.237 117.535C421.624 116.579 421.827 115.522 421.827 114.364C421.827 113.489 421.726 112.677 421.502 111.905C421.278 111.153 420.933 110.481 420.485 109.892C420.038 109.302 419.469 108.855 418.778 108.51C418.086 108.184 417.274 108.022 416.338 108.022C415.099 108.022 414.062 108.306 413.248 108.896C412.415 109.486 411.805 110.238 411.419 111.193C411.013 112.149 410.809 113.206 410.809 114.364C410.809 115.503 411.013 116.56 411.419 117.515C411.826 118.47 412.436 119.243 413.269 119.812C414.082 120.402 415.098 120.686 416.338 120.686L416.338 120.686ZM425.954 121.539V107.168H431.239C431.991 107.168 432.682 107.249 433.312 107.391C433.922 107.554 434.45 107.798 434.898 108.143C435.325 108.489 435.67 108.936 435.914 109.485C436.137 110.054 436.26 110.746 436.26 111.539C436.26 112.291 436.118 112.941 435.853 113.49C435.589 114.039 435.182 114.507 434.674 114.872C434.166 115.238 433.556 115.502 432.845 115.665L435.975 121.54H434.694L431.645 115.868H427.112V121.54H425.954V121.539ZM427.112 114.831H430.67C431.239 114.831 431.788 114.79 432.316 114.689C432.845 114.608 433.313 114.445 433.739 114.201C434.146 113.957 434.471 113.611 434.715 113.164C434.939 112.737 435.061 112.168 435.061 111.477C435.08 110.644 434.918 109.973 434.573 109.506C434.227 109.038 433.739 108.692 433.15 108.51C432.54 108.326 431.829 108.225 431.036 108.225H427.113V114.831L427.112 114.831ZM448.09 121.539V108.225H443.273V107.168H454.067V108.225H449.249V121.539H448.091H448.09ZM456.283 121.539V107.168H457.441V113.977H466.182V107.168H467.341V121.539H466.182V115.014H457.441V121.539H456.283ZM471.04 121.539V107.168H480.432V108.224H472.199V113.875H479.598V114.932H472.199V120.482H480.432V121.539H471.04V121.539ZM494.6 121.702C493.116 121.702 491.876 121.377 490.921 120.746C489.945 120.116 489.213 119.242 488.746 118.124C488.279 117.027 488.035 115.766 488.035 114.363C488.035 112.961 488.279 111.721 488.766 110.603C489.234 109.506 489.966 108.631 490.962 107.981C491.938 107.33 493.178 107.004 494.661 107.004C495.536 107.004 496.328 107.127 497.061 107.391C497.772 107.656 498.402 108.021 498.91 108.529C499.418 109.037 499.784 109.668 500.028 110.44H498.828C498.503 109.647 497.975 109.037 497.243 108.631C496.491 108.224 495.637 108.021 494.682 108.021C493.421 108.021 492.385 108.306 491.592 108.896C490.779 109.485 490.189 110.237 489.803 111.193C489.417 112.148 489.213 113.184 489.213 114.323C489.213 115.462 489.396 116.519 489.783 117.474C490.169 118.45 490.758 119.222 491.571 119.812C492.364 120.402 493.401 120.686 494.641 120.686C495.271 120.686 495.86 120.605 496.45 120.422C497.039 120.238 497.548 119.974 497.995 119.609C498.442 119.243 498.767 118.795 498.971 118.267H500.292C500.027 119.019 499.6 119.649 499.052 120.157C498.483 120.665 497.812 121.051 497.06 121.316C496.308 121.58 495.474 121.702 494.6 121.702L494.6 121.702ZM503.076 121.539V107.168H508.361C509.113 107.168 509.805 107.249 510.435 107.391C511.045 107.554 511.573 107.798 512.02 108.143C512.448 108.489 512.793 108.936 513.037 109.485C513.26 110.054 513.382 110.746 513.382 111.539C513.382 112.291 513.24 112.941 512.976 113.49C512.711 114.039 512.305 114.507 511.797 114.872C511.289 115.238 510.679 115.502 509.968 115.665L513.098 121.54H511.817L508.768 115.868H504.235V121.54H503.076V121.539ZM504.235 114.831H507.793C508.362 114.831 508.911 114.79 509.439 114.689C509.968 114.608 510.435 114.445 510.862 114.201C511.269 113.957 511.594 113.611 511.838 113.164C512.062 112.737 512.183 112.168 512.183 111.477C512.203 110.644 512.041 109.973 511.696 109.506C511.35 109.038 510.862 108.692 510.273 108.51C509.663 108.326 508.951 108.225 508.158 108.225H504.236V114.831L504.235 114.831ZM516.391 121.539V107.168H525.783V108.224H517.55V113.875H524.949V114.932H517.55V120.482H525.783V121.539H516.391V121.539ZM527.124 121.539L532.674 107.168H534.158L539.748 121.539H538.447L537.186 118.307H529.645L528.405 121.539H527.125H527.124ZM530.031 117.27H536.8L533.426 108.367L530.031 117.27Z" fill="white"/>
<path d="M544.193 121.539V108.224H539.375V107.168H550.169V108.224H545.352V121.539H544.193H544.193ZM552.385 121.539V107.167H553.544V121.539H552.385ZM563.179 121.701C561.695 121.701 560.455 121.376 559.459 120.746C558.463 120.116 557.711 119.242 557.203 118.124C556.695 117.026 556.451 115.766 556.451 114.363C556.451 112.961 556.715 111.7 557.223 110.582C557.731 109.464 558.483 108.591 559.48 107.96C560.475 107.33 561.695 107.004 563.179 107.004C564.663 107.004 565.903 107.33 566.899 107.96C567.895 108.611 568.627 109.485 569.135 110.582C569.643 111.7 569.887 112.961 569.887 114.363C569.887 115.766 569.643 117.006 569.135 118.124C568.627 119.242 567.875 120.116 566.879 120.746C565.883 121.376 564.663 121.701 563.179 121.701ZM563.179 120.685C564.419 120.685 565.456 120.401 566.269 119.831C567.082 119.263 567.692 118.49 568.078 117.534C568.464 116.579 568.668 115.522 568.668 114.363C568.668 113.489 568.566 112.676 568.342 111.904C568.119 111.152 567.773 110.48 567.325 109.891C566.878 109.302 566.309 108.854 565.618 108.509C564.927 108.184 564.114 108.021 563.179 108.021C561.939 108.021 560.902 108.306 560.089 108.896C559.256 109.485 558.646 110.237 558.26 111.193C557.853 112.148 557.65 113.205 557.65 114.363C557.65 115.502 557.853 116.559 558.26 117.514C558.666 118.47 559.276 119.242 560.109 119.811C560.922 120.401 561.939 120.686 563.179 120.686L563.179 120.685ZM572.794 121.539V107.167H574.38L583.04 120.075V107.167H584.198V121.539H582.674L573.953 108.631V121.539H572.794H572.794ZM591.821 121.539L597.371 107.167H598.854L604.445 121.539H603.144L601.883 118.306H594.342L593.102 121.539H591.821H591.821ZM594.728 117.27H601.497L598.123 108.366L594.728 117.27ZM606.579 121.539V107.167H608.164L616.824 120.075V107.167H617.983V121.539H616.459L607.738 108.631V121.539H606.579H606.579ZM621.682 121.539V107.167H626.683C628.167 107.167 629.407 107.472 630.403 108.062C631.399 108.671 632.131 109.505 632.639 110.582C633.147 111.659 633.391 112.92 633.391 114.363C633.391 115.786 633.147 117.026 632.639 118.104C632.131 119.181 631.399 120.014 630.403 120.624C629.407 121.234 628.167 121.539 626.683 121.539H621.682ZM622.841 120.482H626.521C627.801 120.482 628.859 120.218 629.691 119.71C630.525 119.201 631.135 118.47 631.562 117.555C631.988 116.64 632.192 115.563 632.192 114.363C632.192 113.184 631.988 112.127 631.581 111.192C631.175 110.278 630.565 109.546 629.752 109.017C628.94 108.489 627.902 108.224 626.662 108.224H622.841V120.482L622.841 120.482ZM646.807 121.701C645.974 121.701 645.181 121.6 644.429 121.376C643.657 121.153 642.986 120.787 642.416 120.278C641.847 119.77 641.441 119.1 641.196 118.266H642.457C642.721 118.856 643.067 119.344 643.534 119.689C644.002 120.035 644.51 120.299 645.099 120.441C645.669 120.604 646.238 120.685 646.807 120.685C647.437 120.685 648.047 120.583 648.636 120.38C649.226 120.197 649.693 119.892 650.059 119.486C650.425 119.079 650.608 118.551 650.608 117.88C650.608 117.351 650.507 116.925 650.304 116.599C650.08 116.274 649.795 116.01 649.45 115.806C649.084 115.624 648.657 115.461 648.189 115.319C647.844 115.217 647.478 115.116 647.112 115.014C646.746 114.933 646.401 114.852 646.055 114.75C645.709 114.648 645.364 114.546 645.059 114.445C644.632 114.323 644.226 114.18 643.819 113.998C643.392 113.815 643.026 113.591 642.721 113.327C642.396 113.063 642.132 112.717 641.949 112.331C641.746 111.944 641.645 111.457 641.645 110.887C641.645 110.298 641.726 109.79 641.909 109.363C642.092 108.936 642.336 108.57 642.661 108.265C642.987 107.961 643.352 107.716 643.779 107.533C644.206 107.351 644.653 107.229 645.141 107.127C645.609 107.046 646.096 107.004 646.605 107.004C647.377 107.004 648.109 107.106 648.78 107.33C649.451 107.554 650.02 107.899 650.487 108.387C650.955 108.875 651.26 109.525 651.382 110.359H650.202C650.06 109.769 649.816 109.322 649.451 108.977C649.064 108.631 648.637 108.387 648.129 108.245C647.621 108.102 647.113 108.021 646.584 108.021C646.158 108.021 645.73 108.062 645.304 108.143C644.877 108.245 644.47 108.387 644.104 108.591C643.738 108.794 643.433 109.058 643.21 109.404C642.986 109.749 642.864 110.196 642.864 110.725C642.864 111.253 642.987 111.68 643.21 112.025C643.433 112.371 643.718 112.635 644.084 112.839C644.43 113.042 644.836 113.225 645.284 113.367C645.873 113.55 646.503 113.713 647.133 113.855C647.763 113.997 648.373 114.18 648.942 114.363C649.349 114.485 649.735 114.648 650.08 114.831C650.426 115.034 650.731 115.278 650.995 115.542C651.26 115.806 651.463 116.111 651.605 116.457C651.747 116.802 651.828 117.209 651.828 117.636C651.828 118.388 651.686 119.018 651.422 119.526C651.137 120.035 650.751 120.461 650.283 120.787C649.816 121.112 649.267 121.336 648.678 121.478C648.088 121.64 647.458 121.701 646.807 121.701H646.807ZM660.406 121.701C659.105 121.701 658.049 121.437 657.235 120.888C656.402 120.339 655.813 119.608 655.427 118.652C655.04 117.718 654.837 116.64 654.837 115.42V107.167H656.016V115.359C656.016 116.355 656.158 117.249 656.463 118.042C656.748 118.855 657.215 119.506 657.866 119.973C658.516 120.44 659.37 120.685 660.427 120.685C661.525 120.685 662.399 120.44 663.029 119.953C663.659 119.485 664.126 118.835 664.411 118.022C664.675 117.229 664.818 116.334 664.818 115.359V107.167H665.996V115.419C665.996 116.639 665.813 117.717 665.427 118.652C665.041 119.607 664.451 120.339 663.618 120.888C662.785 121.437 661.728 121.701 660.406 121.701L660.406 121.701ZM669.594 121.539V107.167H674.432C675.469 107.167 676.363 107.33 677.115 107.655C677.847 108 678.417 108.509 678.803 109.2C679.189 109.891 679.392 110.765 679.392 111.842C679.392 112.899 679.169 113.773 678.701 114.465C678.233 115.176 677.583 115.705 676.79 116.051C675.977 116.396 675.062 116.579 674.046 116.579H670.753V121.539H669.594V121.539ZM670.753 115.542H673.985C675.245 115.542 676.262 115.237 677.034 114.628C677.807 114.038 678.193 113.083 678.193 111.761C678.193 110.522 677.847 109.607 677.176 109.058C676.506 108.509 675.55 108.224 674.331 108.224H670.753V115.542ZM682.319 121.539V107.167H687.157C688.194 107.167 689.088 107.33 689.84 107.655C690.572 108 691.142 108.509 691.528 109.2C691.914 109.891 692.117 110.765 692.117 111.842C692.117 112.899 691.894 113.773 691.426 114.465C690.958 115.176 690.308 115.705 689.515 116.051C688.702 116.396 687.787 116.579 686.771 116.579H683.478V121.539H682.319V121.539ZM683.478 115.542H686.71C687.97 115.542 688.987 115.237 689.759 114.628C690.532 114.038 690.918 113.083 690.918 111.761C690.918 110.522 690.573 109.607 689.901 109.058C689.231 108.509 688.275 108.224 687.056 108.224H683.478V115.542ZM700.98 121.701C699.496 121.701 698.256 121.376 697.26 120.746C696.264 120.116 695.512 119.242 695.003 118.124C694.496 117.026 694.251 115.766 694.251 114.363C694.251 112.961 694.516 111.7 695.024 110.582C695.532 109.464 696.284 108.591 697.28 107.96C698.276 107.33 699.496 107.004 700.98 107.004C702.464 107.004 703.704 107.33 704.7 107.96C705.696 108.611 706.428 109.485 706.936 110.582C707.444 111.7 707.688 112.961 707.688 114.363C707.688 115.766 707.444 117.006 706.936 118.124C706.428 119.242 705.676 120.116 704.68 120.746C703.683 121.376 702.464 121.701 700.98 121.701ZM700.98 120.685C702.22 120.685 703.257 120.401 704.07 119.831C704.883 119.263 705.493 118.49 705.879 117.534C706.265 116.579 706.469 115.522 706.469 114.363C706.469 113.489 706.367 112.676 706.143 111.904C705.919 111.152 705.574 110.48 705.126 109.891C704.679 109.302 704.11 108.854 703.419 108.509C702.728 108.184 701.915 108.021 700.98 108.021C699.74 108.021 698.703 108.306 697.89 108.896C697.057 109.485 696.447 110.237 696.06 111.193C695.654 112.148 695.451 113.205 695.451 114.363C695.451 115.502 695.654 116.559 696.06 117.514C696.467 118.47 697.077 119.242 697.91 119.811C698.723 120.401 699.74 120.686 700.979 120.686L700.98 120.685ZM710.595 121.539V107.167H715.88C716.632 107.167 717.324 107.248 717.954 107.39C718.563 107.553 719.092 107.797 719.539 108.143C719.966 108.488 720.311 108.935 720.556 109.485C720.779 110.054 720.901 110.745 720.901 111.538C720.901 112.29 720.759 112.94 720.494 113.489C720.23 114.038 719.824 114.506 719.316 114.871C718.807 115.237 718.197 115.502 717.486 115.664L720.617 121.539H719.336L716.287 115.867H711.754V121.539H710.595V121.539ZM711.754 114.83H715.311C715.88 114.83 716.429 114.79 716.958 114.688C717.486 114.607 717.954 114.444 718.381 114.2C718.788 113.956 719.113 113.611 719.356 113.164C719.58 112.737 719.702 112.168 719.702 111.476C719.722 110.643 719.559 109.972 719.214 109.505C718.869 109.037 718.381 108.692 717.791 108.509C717.182 108.326 716.47 108.224 715.677 108.224H711.754V114.831L711.754 114.83ZM727.243 121.539V108.224H722.426V107.167H733.22V108.224H728.402V121.539H727.243H727.243Z" fill="white"/>
<path d="M197.516 146.776C196.032 146.776 194.793 146.451 193.796 145.821C192.8 145.191 192.048 144.316 191.54 143.198C191.032 142.101 190.788 140.84 190.788 139.438C190.788 138.035 191.052 136.775 191.56 135.657C192.069 134.539 192.821 133.665 193.817 133.035C194.812 132.405 196.032 132.079 197.516 132.079C199 132.079 200.24 132.405 201.236 133.035C202.233 133.685 202.964 134.559 203.473 135.657C203.981 136.775 204.225 138.036 204.225 139.438C204.225 140.84 203.981 142.08 203.473 143.198C202.964 144.316 202.212 145.19 201.216 145.821C200.22 146.451 199 146.776 197.516 146.776ZM197.516 145.76C198.757 145.76 199.793 145.475 200.606 144.906C201.419 144.337 202.029 143.564 202.416 142.609C202.802 141.653 203.005 140.596 203.005 139.438C203.005 138.563 202.903 137.75 202.68 136.978C202.456 136.226 202.111 135.555 201.663 134.966C201.216 134.376 200.647 133.929 199.956 133.583C199.265 133.258 198.452 133.096 197.516 133.096C196.276 133.096 195.24 133.38 194.426 133.97C193.593 134.56 192.983 135.312 192.597 136.267C192.191 137.222 191.987 138.28 191.987 139.438C191.987 140.577 192.191 141.634 192.597 142.589C193.004 143.544 193.614 144.317 194.447 144.886C195.26 145.475 196.276 145.76 197.516 145.76L197.516 145.76ZM207.132 146.613V132.242H216.523V133.298H208.291V139.457H215.385V140.514H208.291V146.613H207.132V146.613ZM229.695 146.776C228.862 146.776 228.069 146.674 227.317 146.451C226.544 146.227 225.874 145.861 225.304 145.353C224.735 144.844 224.329 144.174 224.084 143.34H225.345C225.609 143.93 225.955 144.418 226.422 144.763C226.89 145.109 227.398 145.373 227.988 145.515C228.557 145.678 229.126 145.759 229.695 145.759C230.325 145.759 230.935 145.658 231.524 145.454C232.114 145.271 232.581 144.967 232.947 144.56C233.314 144.153 233.496 143.625 233.496 142.954C233.496 142.425 233.395 141.999 233.191 141.674C232.968 141.349 232.683 141.084 232.338 140.881C231.972 140.697 231.545 140.535 231.078 140.393C230.732 140.291 230.366 140.19 230 140.088C229.634 140.007 229.288 139.926 228.943 139.824C228.597 139.722 228.252 139.62 227.947 139.519C227.521 139.397 227.114 139.255 226.707 139.072C226.28 138.889 225.914 138.665 225.61 138.401C225.285 138.137 225.02 137.791 224.837 137.405C224.634 137.019 224.533 136.53 224.533 135.962C224.533 135.372 224.614 134.864 224.797 134.437C224.98 134.01 225.224 133.644 225.549 133.34C225.875 133.035 226.24 132.791 226.667 132.608C227.094 132.425 227.541 132.303 228.029 132.201C228.496 132.119 228.984 132.079 229.493 132.079C230.265 132.079 230.997 132.18 231.668 132.404C232.338 132.628 232.908 132.973 233.375 133.461C233.843 133.949 234.147 134.599 234.27 135.433H233.091C232.948 134.843 232.705 134.396 232.338 134.051C231.952 133.705 231.525 133.461 231.017 133.319C230.509 133.177 230.001 133.095 229.472 133.095C229.045 133.095 228.619 133.136 228.192 133.217C227.765 133.319 227.358 133.461 226.992 133.664C226.626 133.868 226.321 134.132 226.098 134.478C225.874 134.823 225.752 135.27 225.752 135.799C225.752 136.327 225.875 136.754 226.098 137.1C226.321 137.445 226.606 137.71 226.972 137.913C227.317 138.116 227.724 138.299 228.171 138.441C228.761 138.624 229.391 138.787 230.021 138.929C230.651 139.071 231.261 139.254 231.83 139.437C232.237 139.559 232.623 139.722 232.968 139.905C233.314 140.108 233.619 140.352 233.883 140.616C234.147 140.881 234.351 141.185 234.493 141.531C234.635 141.876 234.717 142.283 234.717 142.71C234.717 143.462 234.574 144.092 234.31 144.6C234.025 145.109 233.639 145.535 233.172 145.861C232.704 146.186 232.155 146.409 231.566 146.552C230.976 146.714 230.346 146.776 229.696 146.776H229.695Z" fill="white"/>
<path d="M240.955 146.613V133.299H236.138V132.242H246.931V133.299H242.114V146.613H240.955Z" fill="white"/>
<path d="M246.564 146.613L252.114 132.242H253.598L259.188 146.613H257.887L256.627 143.381H249.085L247.845 146.613H246.565H246.564ZM249.471 142.344H256.24L252.866 133.441L249.471 142.344Z" fill="white"/>
<path d="M263.639 146.613V133.299H258.822V132.242H269.616V133.299H264.798V146.613H263.639H263.639ZM271.832 146.613V132.242H281.223V133.298H272.99V138.949H280.389V140.006H272.99V145.555H281.223V146.613H271.832V146.613ZM289.618 146.613V132.242H290.777V146.613H289.618ZM294.477 146.613V132.242H296.062L304.722 145.15V132.242H305.881V146.613H304.356L295.636 133.705V146.613H294.477H294.477ZM309.58 146.613V132.242H318.972V133.298H310.739V139.457H317.833V140.514H310.739V146.613H309.58V146.613ZM327.59 146.776C326.106 146.776 324.867 146.451 323.87 145.82C322.874 145.19 322.122 144.316 321.614 143.198C321.106 142.1 320.862 140.84 320.862 139.437C320.862 138.035 321.126 136.774 321.634 135.656C322.143 134.538 322.895 133.664 323.891 133.034C324.886 132.404 326.106 132.079 327.59 132.079C329.074 132.079 330.314 132.404 331.31 133.034C332.306 133.685 333.038 134.559 333.547 135.656C334.054 136.775 334.299 138.035 334.299 139.437C334.299 140.84 334.054 142.08 333.547 143.198C333.038 144.316 332.286 145.19 331.29 145.82C330.294 146.451 329.074 146.776 327.59 146.776ZM327.59 145.759C328.83 145.759 329.867 145.474 330.68 144.906C331.493 144.336 332.103 143.564 332.49 142.608C332.876 141.653 333.079 140.596 333.079 139.437C333.079 138.563 332.977 137.75 332.754 136.978C332.53 136.226 332.185 135.555 331.737 134.965C331.29 134.376 330.721 133.928 330.03 133.583C329.338 133.258 328.526 133.096 327.59 133.096C326.35 133.096 325.314 133.38 324.5 133.97C323.667 134.559 323.057 135.311 322.671 136.267C322.264 137.222 322.061 138.279 322.061 139.438C322.061 140.576 322.264 141.633 322.671 142.589C323.078 143.544 323.688 144.316 324.521 144.886C325.334 145.475 326.35 145.76 327.59 145.76L327.59 145.759ZM337.206 146.613V132.241H342.49C343.243 132.241 343.934 132.323 344.564 132.464C345.174 132.627 345.702 132.871 346.149 133.217C346.576 133.562 346.922 134.009 347.166 134.559C347.39 135.128 347.511 135.819 347.511 136.612C347.511 137.364 347.369 138.014 347.105 138.563C346.84 139.113 346.434 139.58 345.926 139.946C345.418 140.311 344.808 140.576 344.097 140.739L347.227 146.613H345.946L342.897 140.942H338.364V146.613H337.206V146.613ZM338.364 139.904H341.922C342.491 139.904 343.04 139.864 343.568 139.762C344.097 139.681 344.564 139.518 344.991 139.275C345.398 139.03 345.723 138.685 345.967 138.238C346.191 137.811 346.313 137.242 346.313 136.551C346.333 135.717 346.17 135.046 345.825 134.579C345.479 134.111 344.991 133.766 344.402 133.583C343.792 133.4 343.081 133.298 342.288 133.298H338.365V139.905L338.364 139.904ZM350.52 146.613V132.241H352.228L357.29 141.002L362.27 132.241H363.937V146.613H362.778V133.542L357.553 142.71H356.984L351.679 133.542V146.613H350.52H350.52ZM366.071 146.613L371.621 132.241H373.105L378.695 146.613H377.394L376.133 143.38H368.592L367.352 146.613H366.071H366.071ZM368.978 142.344H375.747L372.373 133.44L368.978 142.344Z" fill="white"/>
<path d="M383.141 146.614V133.299H378.324V132.242H389.118V133.299H384.3V146.614H383.142H383.141ZM391.334 146.614V132.242H392.492V146.614H391.334ZM402.128 146.776C400.644 146.776 399.404 146.451 398.408 145.821C397.412 145.191 396.66 144.316 396.151 143.198C395.643 142.101 395.399 140.84 395.399 139.438C395.399 138.035 395.664 136.775 396.172 135.657C396.68 134.539 397.432 133.665 398.428 133.035C399.424 132.405 400.644 132.079 402.128 132.079C403.612 132.079 404.852 132.405 405.848 133.035C406.844 133.685 407.575 134.559 408.084 135.657C408.592 136.775 408.836 138.036 408.836 139.438C408.836 140.84 408.592 142.08 408.084 143.198C407.575 144.316 406.824 145.19 405.827 145.821C404.831 146.451 403.612 146.776 402.128 146.776ZM402.128 145.76C403.368 145.76 404.405 145.475 405.217 144.906C406.031 144.337 406.641 143.564 407.027 142.609C407.413 141.653 407.617 140.596 407.617 139.438C407.617 138.563 407.515 137.75 407.291 136.978C407.067 136.226 406.722 135.555 406.274 134.966C405.827 134.376 405.258 133.929 404.567 133.583C403.876 133.258 403.063 133.096 402.128 133.096C400.888 133.096 399.851 133.38 399.038 133.97C398.204 134.56 397.594 135.312 397.208 136.267C396.802 137.222 396.599 138.28 396.599 139.438C396.599 140.577 396.802 141.634 397.208 142.589C397.615 143.544 398.225 144.317 399.058 144.886C399.871 145.475 400.887 145.76 402.127 145.76L402.128 145.76ZM411.743 146.613V132.242H413.328L421.988 145.15V132.242H423.147V146.613H421.623L412.902 133.705V146.613H411.743H411.743ZM437.335 146.776C436.502 146.776 435.709 146.674 434.957 146.451C434.185 146.227 433.514 145.861 432.945 145.353C432.375 144.844 431.969 144.174 431.725 143.34H432.985C433.249 143.93 433.595 144.418 434.063 144.763C434.53 145.109 435.038 145.373 435.628 145.515C436.197 145.678 436.766 145.759 437.335 145.759C437.965 145.759 438.575 145.658 439.165 145.454C439.754 145.271 440.221 144.967 440.587 144.56C440.954 144.153 441.137 143.625 441.137 142.954C441.137 142.425 441.035 141.999 440.832 141.674C440.608 141.349 440.323 141.084 439.978 140.881C439.612 140.697 439.185 140.535 438.718 140.393C438.372 140.291 438.006 140.19 437.64 140.088C437.274 140.007 436.928 139.926 436.583 139.824C436.237 139.722 435.892 139.62 435.587 139.519C435.161 139.397 434.754 139.255 434.347 139.072C433.921 138.889 433.554 138.665 433.25 138.401C432.925 138.137 432.66 137.791 432.477 137.405C432.274 137.019 432.173 136.53 432.173 135.962C432.173 135.372 432.254 134.864 432.437 134.437C432.62 134.01 432.864 133.644 433.189 133.34C433.515 133.035 433.881 132.791 434.307 132.608C434.734 132.425 435.181 132.303 435.669 132.201C436.137 132.119 436.624 132.079 437.133 132.079C437.905 132.079 438.637 132.18 439.308 132.404C439.979 132.628 440.548 132.973 441.015 133.461C441.483 133.949 441.788 134.599 441.91 135.433H440.731C440.588 134.843 440.345 134.396 439.979 134.051C439.593 133.705 439.166 133.461 438.657 133.319C438.149 133.177 437.641 133.095 437.112 133.095C436.686 133.095 436.259 133.136 435.832 133.217C435.405 133.319 434.998 133.461 434.632 133.664C434.266 133.868 433.962 134.132 433.738 134.478C433.515 134.823 433.392 135.27 433.392 135.799C433.392 136.327 433.515 136.754 433.738 137.1C433.962 137.445 434.246 137.71 434.612 137.913C434.958 138.116 435.364 138.299 435.812 138.441C436.401 138.624 437.031 138.787 437.662 138.929C438.291 139.071 438.901 139.254 439.471 139.437C439.877 139.559 440.263 139.722 440.609 139.905C440.954 140.108 441.259 140.352 441.523 140.616C441.788 140.881 441.991 141.185 442.133 141.531C442.275 141.876 442.357 142.283 442.357 142.71C442.357 143.462 442.215 144.092 441.95 144.6C441.665 145.109 441.279 145.535 440.812 145.861C440.344 146.186 439.795 146.409 439.206 146.552C438.617 146.714 437.986 146.776 437.336 146.776H437.335Z" fill="white"/>
<path d="M448.675 146.613V141.206L443.572 132.242H444.955L449.264 140.027L453.574 132.242H454.895L449.833 141.186V146.613H448.675Z" fill="white"/>
<path d="M461.706 146.776C460.872 146.776 460.079 146.674 459.327 146.451C458.555 146.227 457.884 145.861 457.315 145.353C456.745 144.844 456.339 144.174 456.095 143.34H457.355C457.619 143.93 457.965 144.418 458.433 144.763C458.9 145.109 459.408 145.373 459.998 145.515C460.567 145.678 461.136 145.759 461.705 145.759C462.335 145.759 462.945 145.658 463.535 145.454C464.124 145.271 464.591 144.967 464.957 144.56C465.324 144.153 465.507 143.625 465.507 142.954C465.507 142.425 465.405 141.999 465.202 141.674C464.978 141.349 464.693 141.084 464.348 140.881C463.982 140.697 463.555 140.535 463.088 140.393C462.742 140.291 462.376 140.19 462.01 140.088C461.644 140.007 461.299 139.926 460.953 139.824C460.608 139.722 460.262 139.62 459.957 139.519C459.531 139.397 459.124 139.255 458.717 139.072C458.29 138.889 457.924 138.665 457.62 138.401C457.295 138.137 457.03 137.791 456.847 137.405C456.644 137.019 456.543 136.53 456.543 135.962C456.543 135.372 456.624 134.864 456.807 134.437C456.99 134.01 457.234 133.644 457.559 133.34C457.885 133.035 458.251 132.791 458.677 132.608C459.104 132.425 459.551 132.303 460.039 132.201C460.507 132.119 460.995 132.079 461.503 132.079C462.275 132.079 463.008 132.18 463.678 132.404C464.349 132.628 464.918 132.973 465.385 133.461C465.853 133.949 466.158 134.599 466.28 135.433H465.101C464.958 134.843 464.715 134.396 464.349 134.051C463.963 133.705 463.536 133.461 463.027 133.319C462.519 133.177 462.011 133.095 461.482 133.095C461.056 133.095 460.628 133.136 460.202 133.217C459.775 133.319 459.368 133.461 459.002 133.664C458.636 133.868 458.332 134.132 458.108 134.478C457.884 134.823 457.763 135.27 457.763 135.799C457.763 136.327 457.885 136.754 458.108 137.1C458.332 137.445 458.616 137.71 458.982 137.913C459.328 138.116 459.734 138.299 460.182 138.441C460.772 138.624 461.401 138.787 462.031 138.929C462.661 139.071 463.271 139.254 463.84 139.437C464.247 139.559 464.633 139.722 464.979 139.905C465.324 140.108 465.629 140.352 465.893 140.616C466.158 140.881 466.361 141.185 466.503 141.531C466.646 141.876 466.727 142.283 466.727 142.71C466.727 143.462 466.585 144.092 466.32 144.6C466.036 145.109 465.649 145.535 465.182 145.861C464.714 146.186 464.166 146.409 463.576 146.552C462.986 146.714 462.356 146.776 461.706 146.776H461.706Z" fill="white"/>
<path d="M472.964 146.613V133.299H468.146V132.242H478.94V133.299H474.123V146.613H472.964H472.964ZM481.156 146.613V132.242H490.548V133.298H482.315V138.949H489.714V140.006H482.315V145.555H490.548V146.613H481.156V146.613ZM493.455 146.613V132.242H495.162L500.224 141.002L505.204 132.242H506.871V146.613H505.712V133.542L500.488 142.71H499.919L494.613 133.542V146.613H493.454H493.455ZM515.571 146.776C514.738 146.776 513.945 146.674 513.193 146.451C512.42 146.227 511.75 145.861 511.18 145.353C510.611 144.844 510.205 144.174 509.96 143.34H511.221C511.485 143.93 511.831 144.418 512.298 144.763C512.766 145.109 513.274 145.373 513.864 145.515C514.433 145.678 515.002 145.759 515.571 145.759C516.201 145.759 516.811 145.658 517.4 145.454C517.99 145.271 518.457 144.967 518.823 144.56C519.189 144.153 519.372 143.625 519.372 142.954C519.372 142.425 519.271 141.999 519.067 141.674C518.844 141.349 518.559 141.084 518.214 140.881C517.848 140.697 517.421 140.535 516.954 140.393C516.608 140.291 516.242 140.19 515.876 140.088C515.51 140.007 515.164 139.926 514.819 139.824C514.473 139.722 514.128 139.62 513.823 139.519C513.397 139.397 512.99 139.255 512.583 139.072C512.156 138.889 511.79 138.665 511.485 138.401C511.161 138.137 510.896 137.791 510.713 137.405C510.51 137.019 510.409 136.53 510.409 135.962C510.409 135.372 510.49 134.864 510.673 134.437C510.856 134.01 511.099 133.644 511.425 133.34C511.751 133.035 512.116 132.791 512.543 132.608C512.97 132.425 513.417 132.303 513.905 132.201C514.372 132.119 514.86 132.079 515.368 132.079C516.141 132.079 516.873 132.18 517.544 132.404C518.214 132.628 518.784 132.973 519.251 133.461C519.719 133.949 520.023 134.599 520.145 135.433H518.967C518.824 134.843 518.58 134.396 518.214 134.051C517.828 133.705 517.401 133.461 516.893 133.319C516.385 133.177 515.877 133.095 515.348 133.095C514.921 133.095 514.494 133.136 514.068 133.217C513.641 133.319 513.234 133.461 512.868 133.664C512.502 133.868 512.197 134.132 511.973 134.478C511.75 134.823 511.628 135.27 511.628 135.799C511.628 136.327 511.751 136.754 511.973 137.1C512.197 137.445 512.482 137.71 512.848 137.913C513.193 138.116 513.6 138.299 514.047 138.441C514.637 138.624 515.267 138.787 515.897 138.929C516.527 139.071 517.137 139.254 517.706 139.437C518.113 139.559 518.499 139.722 518.844 139.905C519.19 140.108 519.495 140.352 519.759 140.616C520.023 140.881 520.226 141.185 520.368 141.531C520.511 141.876 520.593 142.283 520.593 142.71C520.593 143.462 520.45 144.092 520.186 144.6C519.901 145.109 519.515 145.535 519.048 145.861C518.58 146.186 518.031 146.409 517.442 146.552C516.852 146.714 516.222 146.776 515.572 146.776H515.571Z" fill="white"/>
<path d="M252.241 64.6845C252.241 73.2004 249.547 79.7176 244.246 84.1495C238.945 88.668 231.299 90.9273 221.479 90.9273C211.573 90.9273 203.926 88.668 198.625 84.1495C193.238 79.7176 190.544 73.2004 190.544 64.6845V29.2305H204.708V65.814C204.708 69.1164 205.316 71.6365 206.446 73.3747C207.575 75.1991 209.401 76.4159 211.747 77.0239C214.093 77.7196 217.395 78.0668 221.479 78.0668C225.563 78.0668 228.865 77.7196 231.211 77.0239C233.557 76.3286 235.383 75.1119 236.512 73.2874C237.642 71.5496 238.163 69.0291 238.163 65.814V29.2305H252.24V64.6845H252.241ZM261.191 76.5898L295.603 41.6569H262.147V29.2305H314.633V43.1342L280.048 77.6326H315.502V90.059H261.191V76.5898ZM325.235 29.2305H339.747V90.0587H325.235V29.2305ZM353.39 29.2305H372.246L396.491 63.0336L402.226 71.2021H402.573L402.486 63.2076V29.2305H416.564V90.0587H398.489L373.55 54.9518L367.727 46.6098H367.38L367.467 54.9518V90.0587H353.39V29.2305ZM444.284 42.178V54.5177H473.221V67.0307H444.284V90.0587H430.12V29.2305H476.089V42.178H444.284ZM518.668 90.9273C511.804 90.9273 505.634 89.6239 500.333 87.1044C495.032 84.5843 490.861 81.0214 487.907 76.3289C484.865 71.6369 483.388 66.1618 483.388 59.8185C483.388 53.4749 484.865 47.9132 487.907 43.1342C490.861 38.3545 495.032 34.7049 500.421 32.1854C505.721 29.6653 511.804 28.3619 518.668 28.3619C525.534 28.3619 531.703 29.6656 537.004 32.1854C542.305 34.7052 546.389 38.3548 549.343 43.1342C552.298 47.9135 553.775 53.4749 553.775 59.8185C553.775 66.1618 552.297 71.6369 549.343 76.3289C546.302 81.0214 542.218 84.5843 536.917 87.1044C531.616 89.6242 525.534 90.9273 518.668 90.9273ZM518.668 78.0668C525.794 78.0668 531.008 76.5895 534.31 73.6349C537.525 70.7673 539.176 66.0752 539.176 59.6449C539.176 54.9522 538.481 51.3023 537.004 48.6089C535.526 45.9152 533.354 44.0034 530.4 42.8736C527.445 41.7442 523.534 41.2221 518.668 41.2221C513.802 41.2221 509.892 41.7438 506.937 42.8736C503.896 44.0031 501.724 45.9152 500.246 48.6089C498.769 51.3023 498.074 54.9522 498.074 59.6449C498.074 64.4246 498.769 68.1605 500.246 70.8546C501.724 73.5486 503.896 75.3731 506.851 76.4162C509.805 77.5457 513.716 78.0671 518.669 78.0671L518.668 78.0668ZM595.051 90.9273C588.099 90.9273 581.93 89.6239 576.629 87.1044C571.241 84.5843 567.07 81.0214 564.115 76.3289C561.074 71.6369 559.597 66.1618 559.597 59.8185C559.597 53.3879 560.987 47.8269 563.855 43.0472C566.722 38.3545 570.807 34.7049 576.107 32.1851C581.408 29.6649 587.751 28.3616 595.051 28.3616C604.175 28.3616 611.475 30.5335 617.036 34.7918C622.51 39.1367 625.9 45.5667 627.203 53.996L613.039 56.69L612.865 56.6034C612.17 52.4314 611.301 49.3039 610.171 47.1309C609.042 44.959 607.391 43.481 605.131 42.5255C602.785 41.6565 599.483 41.2218 595.051 41.2218C589.75 41.2218 585.666 41.7435 582.712 42.8733C579.671 44.0028 577.585 45.9148 576.281 48.6085C574.978 51.3019 574.283 54.9518 574.283 59.6446C574.283 64.4243 574.978 68.0732 576.281 70.7669C577.585 73.461 579.757 75.2861 582.798 76.4156C585.753 77.545 589.837 78.0664 595.051 78.0664C599.483 78.0664 602.785 77.5454 605.131 76.5892C607.478 75.6336 609.129 74.1557 610.259 71.9837C611.388 69.8114 612.257 66.6832 612.865 62.5988L613.039 62.5119L627.203 65.2053C625.9 73.7215 622.511 80.1521 617.037 84.4101C611.475 88.755 604.176 90.927 595.051 90.927V90.9273ZM669.61 90.9273C662.745 90.9273 656.575 89.6239 651.274 87.1044C645.973 84.5843 641.802 81.0214 638.848 76.3289C635.806 71.6369 634.329 66.1618 634.329 59.8185C634.329 53.4749 635.806 47.9132 638.848 43.1342C641.802 38.3545 645.973 34.7049 651.361 32.1854C656.662 29.6653 662.745 28.3619 669.61 28.3619C676.474 28.3619 682.644 29.6656 687.945 32.1854C693.246 34.7052 697.33 38.3548 700.284 43.1342C703.238 47.9135 704.716 53.4749 704.716 59.8185C704.716 66.1618 703.238 71.6369 700.284 76.3289C697.243 81.0214 693.158 84.5843 687.858 87.1044C682.557 89.6242 676.474 90.9273 669.61 90.9273ZM669.61 78.0668C676.735 78.0668 681.949 76.5895 685.251 73.6349C688.466 70.7673 690.117 66.0752 690.117 59.6449C690.117 54.9522 689.422 51.3023 687.945 48.6089C686.467 45.9152 684.295 44.0034 681.34 42.8736C678.386 41.7442 674.476 41.2221 669.61 41.2221C664.743 41.2221 660.833 41.7438 657.878 42.8736C654.837 44.0031 652.665 45.9152 651.187 48.6089C649.71 51.3023 649.015 54.9522 649.015 59.6449C649.015 64.4246 649.71 68.1605 651.187 70.8546C652.665 73.5486 654.837 75.3731 657.792 76.4162C660.746 77.5457 664.657 78.0671 669.61 78.0671L669.61 78.0668ZM714.448 29.2305H738.432L750.945 64.8584L754.769 77.2848L758.592 64.8584L771.019 29.2305H794.915V90.0587H781.359V54.6043L781.533 42.3515H781.186L776.754 54.6043L763.546 90.0587H745.993L732.697 54.6043L728.352 42.3515H728.005L728.092 54.6043V90.0587H714.448V29.2305H714.448Z" fill="white"/>
<path fill-rule="evenodd" clip-rule="evenodd" d="M159.642 0.000732422H20.9695C9.43595 0.000732422 0 9.43635 0 20.9703V25.6318C3.7933 26.2116 8.00546 27.3311 12.5688 28.9495C26.9378 34.0475 44.8282 44.123 64.0374 58.0337C79.649 46.4032 94.0147 38.0824 105.668 33.9522C117.05 29.9173 125.885 29.8705 130.827 34.6164C136.425 39.9892 136.2 50.7328 131.207 64.8041C126.107 79.1738 116.032 97.0643 102.122 116.273C113.754 131.885 122.073 146.252 126.202 157.905C126.413 158.491 126.608 159.069 126.794 159.642H138.672C150.206 159.642 159.642 150.208 159.642 138.674L159.642 0.000732422ZM0 88.0445V138.673C0 146.518 4.3655 153.39 10.7868 156.983C15.6807 157.127 21.6028 155.926 28.3374 153.504C42.0665 148.573 59.1475 138.583 77.8265 124.596C77.9739 124.484 78.1873 124.515 78.3015 124.663C78.4044 124.801 78.3861 124.996 78.264 125.114C73.002 130.132 67.7593 134.879 62.5869 139.329C57.3207 143.859 52.1238 148.082 47.0487 151.967L47.0463 151.969L44.0838 154.208L44.0825 154.209L44.0788 154.212L44.0765 154.213C41.5295 156.113 39.0147 157.924 36.535 159.641H101.267C106.061 154.122 105.789 144.392 101.272 131.817C96.3387 118.089 86.3484 101.008 72.3618 82.3275C72.2489 82.1795 72.2795 81.9641 72.4285 81.8519C72.5672 81.749 72.762 81.7676 72.8782 81.8894H72.8799C77.8969 87.152 82.6471 92.3957 87.0975 97.5681C91.4992 102.686 95.6121 107.74 99.4077 112.68C105.98 99.8645 110.219 88.4972 111.733 79.3182C113.195 70.4454 112.111 63.6335 108.125 59.5611C102.756 54.0781 92.7209 54.162 79.5813 58.884C65.8522 63.8171 48.7736 73.8046 30.0932 87.7923C29.9448 87.9041 29.7324 87.8746 29.6172 87.7246C29.515 87.5865 29.5336 87.3913 29.6564 87.2755C34.9167 82.2605 40.1561 77.5123 45.3264 73.0658C50.445 68.6605 55.5038 64.5469 60.4455 60.75C47.6298 54.1776 36.2625 49.9366 27.0841 48.4228C18.2098 46.9591 11.3988 48.0431 7.32639 52.0306C1.84139 57.4001 1.92801 67.4351 6.64931 80.5721C11.5807 94.3012 21.5706 111.382 35.5576 130.059C35.6708 130.208 35.6379 130.422 35.4882 130.535C35.3518 130.639 35.1566 130.62 35.0391 130.497V130.499C30.0238 125.238 25.2779 119.998 20.8298 114.827C16.299 109.559 12.0729 104.36 8.188 99.283L8.18601 99.2814L5.94667 96.3188L5.94402 96.3172L5.94302 96.3132L5.94004 96.3112C3.85171 93.5133 1.87126 90.7545 0 88.0445Z" fill="white"/>
</g>
<defs>
<clipPath id="clip0_853_549">
<rect width="794.915" height="159.642" fill="white"/>
</clipPath>
</defs>
</svg>
